<?xml version="1.0" encoding="UTF-8" standalone="no"?>
<svg
   xmlns:dc="http://purl.org/dc/elements/1.1/"
   xmlns:cc="http://creativecommons.org/ns#"
   xmlns:rdf="http://www.w3.org/1999/02/22-rdf-syntax-ns#"
   xmlns:svg="http://www.w3.org/2000/svg"
   xmlns="http://www.w3.org/2000/svg"
   xmlns:sodipodi="http://sodipodi.sourceforge.net/DTD/sodipodi-0.dtd"
   xmlns:inkscape="http://www.inkscape.org/namespaces/inkscape"
   inkscape:export-ydpi="48"
   inkscape:export-xdpi="48"
   inkscape:export-filename="/Users/andrew/Downloads/assets/icon-256x256.png"
   id="Layer_1"
   enable-background="new 0 0 512.003 512.003"
   height="512"
   viewBox="0 0 512.003 512.003"
   width="512"
   version="1.1"
   sodipodi:docname="icon.svg"
   inkscape:version="1.0 (4035a4f, 2020-05-01)">
  <metadata
     id="metadata1189">
    <rdf:RDF>
      <cc:Work
         rdf:about="">
        <dc:format>image/svg+xml</dc:format>
        <dc:type
           rdf:resource="http://purl.org/dc/dcmitype/StillImage" />
      </cc:Work>
    </rdf:RDF>
  </metadata>
  <defs
     id="defs1187" />
  <sodipodi:namedview
     inkscape:document-rotation="0"
     pagecolor="#ffffff"
     bordercolor="#666666"
     borderopacity="1"
     objecttolerance="10"
     gridtolerance="10"
     guidetolerance="10"
     inkscape:pageopacity="0"
     inkscape:pageshadow="2"
     inkscape:window-width="2066"
     inkscape:window-height="1092"
     id="namedview1185"
     showgrid="false"
     inkscape:zoom="1.57"
     inkscape:cx="286.56716"
     inkscape:cy="256"
     inkscape:window-x="346"
     inkscape:window-y="146"
     inkscape:window-maximized="0"
     inkscape:current-layer="Layer_1" />
  <rect
     style="fill:#bdefff;fill-opacity:1;stroke-width:12.0785"
     id="rect1193"
     width="513.27667"
     height="513.27667"
     x="-0.63681966"
     y="-0.63681966" />
  <path
     d="m 464.85408,192.71494 h -7.07403 L 365.27407,87.054385 c -2.46897,-2.82007 -6.03546,-4.43774 -9.78401,-4.43774 -3.74854,0 -7.31503,1.61767 -9.78401,4.43774 L 320.10083,116.30066 265.57357,39.542206 c -2.4395,-3.432986 -6.39004,-5.472838 -10.60151,-5.472838 -4.21148,0 -8.16201,2.039852 -10.60151,5.472838 L 190.72667,115.05577 166.21116,87.054385 c -2.46897,-2.82007 -6.0346,-4.43774 -9.78314,-4.43774 -3.74854,0 -7.31504,1.61767 -9.78401,4.43774 L 54.138033,192.71494 h -6.989941 c -7.18153,0 -13.003735,5.82221 -13.003735,13.00374 0,7.18153 5.822205,13.00373 13.003735,13.00373 H 168.56224 c -26.50335,15.95212 -42.29422,34.67143 -47.84768,56.54371 -12.74366,50.19442 34.46597,100.06288 65.70527,133.06202 9.11996,9.63404 16.99589,17.95383 21.15101,23.86532 5.10093,7.25696 6.032,13.40772 -4.30423,23.37032 -5.17116,4.9839 -5.32287,13.21613 -0.33897,18.38641 2.5522,2.64843 5.95571,3.98001 9.36443,3.98001 3.24746,0 6.49926,-1.20935 9.02199,-3.64104 24.70709,-23.81331 15.3262,-45.96561 7.53436,-57.05086 -5.24397,-7.46067 -13.72327,-16.41851 -23.54196,-26.79029 -27.31912,-28.85789 -68.60337,-72.46809 -59.38373,-108.78318 6.28168,-24.74004 35.49153,-45.91012 86.79994,-62.94328 h 51.02492 c -20.428,15.4311 -30.97663,31.3468 -32.58476,48.69292 -3.52661,38.04893 37.35366,68.26614 80.63443,100.25793 41.52093,30.69141 84.45579,62.4266 77.07487,94.32216 -1.6194,6.99687 2.74032,13.98161 9.7372,15.60101 0.98655,0.228 1.97223,0.3381 2.94318,0.3381 5.91583,0 11.26643,-4.06497 12.65783,-10.07529 5.19803,-22.46439 -2.5626,-44.75886 -23.72661,-68.15865 -16.93173,-18.72018 -40.46676,-36.11744 -63.22763,-52.94081 -35.57995,-26.29962 -72.37012,-53.49476 -70.19676,-76.94396 1.45208,-15.66084 21.23076,-33.30344 57.22597,-51.09341 h 130.56964 c 7.18153,0 13.00373,-5.82221 13.00373,-13.00374 0,-7.18153 -5.82307,-13.00287 -13.0046,-13.00287 z m -109.36402,-77.35402 67.72346,77.35402 h -48.82903 l -38.79968,-54.61742 z m -199.06204,0 18.81554,21.49084 -39.68394,55.86318 H 88.703695 Z m 98.54404,-45.833835 87.5108,123.187855 H 167.46125 Z"
     id="path1182"
     style="stroke-width:0.866916;fill:#333333" />
  <rect
     style="fill:none;fill-opacity:1;stroke-width:1.00001"
     id="rect1191"
     width="503.08752"
     height="494.17209"
     x="-0.63681966"
     y="-0.63681966" />
</svg>
